<svg xmlns="http://www.w3.org/2000/svg" version="1.1" xmlns:xlink="http://www.w3.org/1999/xlink" xmlns:svgjs="http://svgjs.dev/svgjs" width="100%" height="100%" viewBox="0 0 1000 600"><rect width="1000" height="600" x="0" y="0" fill="#050505"/><g><rect width="333.3333333333333" height="333.3333333333333" rx="13.333333333333334" ry="13.333333333333334" y="219.41068419445924" fill="#616161" transform="matrix(0.6339113475393169,0,0,0.633911347539317,0,55.261185989261236)" x="197.1884613037109"/><path d="M339.74798207866894 461.0773472284103L319.3908398378462 461.0773472284103L319.3908398378462 311.0773517697164L408.3194085740719 311.0773517697164L408.3194085740719 328.63687504761907L339.74798207866894 328.63687504761907L339.74798207866894 374.49996889719193L396.9503612992264 374.49996889719193L396.9503612992264 391.2261588669908L339.74798207866894 391.2261588669908L339.74798207866894 461.0773472284103Z " fill="#050505" transform="matrix(0.6339113475393169,0,0,0.633911347539317,0,55.261185989261236)"/><path d="M748.86668665591 453.3805948277061L730.7243269332232 460.67226093634577L714.4916892866087 419.00559745840474L646.9859074157499 419.00559745840474L630.7243345861647 460.2671683747547L613.8551229141926 453.3805948277061L670.9442389155661 312.75560558965503L692.6166909606897 312.75560558965503L748.86668665591 453.3805948277061ZM680.7243307596939 332.3447244608815L653.2359069374411 402.3389320672283L708.0102083011511 402.3389320672283L680.7243307596939 332.3447244608815ZM789.4916835469026 458.58892776244875L769.7000183948805 458.58892776244875L769.7000183948805 313.16069815124615Q778.2358973712643 312.11903156429764 788.5368225088664 311.59819827082333Q798.8666828294392 311.0773649773491 809.8909875413111 311.0773649773491L809.8909875413111 311.0773649773491Q828.0333472639979 311.0773649773491 840.7358925881758 316.806531205566Q853.4384379123537 322.53569743378284 860.093529995636 332.54727074167704Q866.777557261889 342.5588440495712 866.777557261889 355.4639356545446L866.777557261889 355.4639356545446Q866.777557261889 371.08893445877254 859.0518634086874 381.91069288984886Q851.3551047384567 392.761386503896 837.6108928273303 398.4905527321129Q823.8666809162039 404.2197189603298 805.7243211935171 404.2197189603298L805.7243211935171 404.2197189603298Q796.9858959363378 404.2197189603298 789.4916835469026 403.5831449349724L789.4916835469026 403.5831449349724L789.4916835469026 458.58892776244875ZM808.241682111976 387.7555998499489L808.241682111976 387.7555998499489Q826.7601992132832 387.7555998499489 836.9743188019729 379.4222671543607Q847.1884383906626 371.08893445877254 847.1884383906626 357.1421762668506L847.1884383906626 357.1421762668506Q847.1884383906626 343.60051063651974 837.4083465465347 335.6722705025226Q827.5993195194361 327.7440303685255 809.4858949797201 327.7440303685255L809.4858949797201 327.7440303685255Q803.8435343004155 327.7440303685255 798.8666828294392 327.97551183229183Q793.8608961754921 328.1780581130874 789.4916835469026 328.58315067467845L789.4916835469026 328.58315067467845L789.4916835469026 386.7139332630004Q792.8192295885436 387.1190258245915 797.5935347787243 387.4373128372702Q802.396775151876 387.7555998499489 808.241682111976 387.7555998499489ZM910.5275539137272 458.58892776244875L890.7358887617052 458.58892776244875L890.7358887617052 313.16069815124615Q899.2717677380888 312.11903156429764 909.572692875691 311.59819827082333Q919.9025531962639 311.0773649773491 930.9268579081358 311.0773649773491L930.9268579081358 311.0773649773491Q949.0692176308225 311.0773649773491 961.7717629550004 316.806531205566Q974.4743082791783 322.53569743378284 981.1583355454313 332.54727074167704Q987.8134276287137 342.5588440495712 987.8134276287137 355.4639356545446L987.8134276287137 355.4639356545446Q987.8134276287137 371.08893445877254 980.1166689584828 381.91069288984886Q972.3909751052813 392.761386503896 958.6467631941548 398.4905527321129Q944.9025512830285 404.2197189603298 926.7601915603416 404.2197189603298L926.7601915603416 404.2197189603298Q918.0217663031624 404.2197189603298 910.5275539137272 403.5831449349724L910.5275539137272 403.5831449349724L910.5275539137272 458.58892776244875ZM929.2775524788005 387.7555998499489L929.2775524788005 387.7555998499489Q947.8250047630786 387.7555998499489 958.0101891687975 379.4222671543607Q968.2243087574872 371.08893445877254 968.2243087574872 357.1421762668506L968.2243087574872 357.1421762668506Q968.2243087574872 343.60051063651974 958.4442169133594 335.6722705025226Q948.6351898862608 327.7440303685255 930.5217653465447 327.7440303685255L930.5217653465447 327.7440303685255Q924.908339850211 327.7440303685255 919.9025531962639 327.97551183229183Q914.8967665423168 328.1780581130874 910.5275539137272 328.58315067467845L910.5275539137272 328.58315067467845L910.5275539137272 386.7139332630004Q913.8550999553684 387.1190258245915 918.6583403285198 387.4373128372702Q923.4326455187005 387.7555998499489 929.2775524788005 387.7555998499489ZM1059.688422128162 458.58892776244875L1039.8967569761398 458.58892776244875L1039.8967569761398 330.26139128698446L995.1050937373533 330.26139128698446L995.1050937373533 312.75560558965503L1104.4800853669485 312.75560558965503L1104.4800853669485 330.26139128698446L1059.688422128162 330.26139128698446L1059.688422128162 458.58892776244875ZM1148.8666560441443 461.0773534979369L1148.8666560441443 461.0773534979369Q1125.5159633867147 461.0773534979369 1111.8874922074715 446.2046694509496Q1098.2300858452577 431.3030502209915 1098.2300858452577 404.4222652411254L1098.2300858452577 404.4222652411254Q1098.2300858452577 388.16069241154 1104.3643446350657 375.37134153844977Q1110.5275386078442 362.55305548238874 1121.5518433197162 355.1456486418659Q1132.6050832145588 347.76717698431383 1147.1884154318382 347.76717698431383L1147.1884154318382 347.76717698431383Q1162.813414236066 347.76717698431383 1173.1143393736684 354.53800979947925Q1183.444199694241 361.3088426146447 1188.6525326289839 372.76717507107844Q1193.8608655637263 384.22550752751226 1193.8608655637263 397.96971943863866L1193.8608655637263 397.96971943863866Q1193.8608655637263 405.26138554727834 1193.224291538369 412.1190239113561L1193.224291538369 412.1190239113561L1117.3851769719222 412.1190239113561Q1119.2659638650234 427.3389301539929 1128.0333243051737 435.8748091303767Q1136.7717495623529 444.41068810676046 1151.1525354988366 444.41068810676046L1151.1525354988366 444.41068810676046Q1160.5275347813736 444.41068810676046 1168.0217471708088 442.4430956647466Q1175.515959560244 440.4755032227327 1182.4025331072926 437.3505034618871L1182.4025331072926 437.3505034618871L1186.7717457358822 453.3805948277061Q1179.277533346447 456.70814086934723 1169.90253406391 458.90721477512744Q1160.5275347813736 461.0773534979369 1148.8666560441443 461.0773534979369ZM1117.1826306911266 396.92805285169015L1117.1826306911266 396.92805285169015L1176.5576261471924 396.92805285169015Q1176.5576261471924 381.1005077666667 1168.658321196166 372.53569360731217Q1160.7300810621691 363.99981463092837 1146.783322870247 363.99981463092837L1146.783322870247 363.99981463092837Q1134.688416388456 363.99981463092837 1126.7601762544587 372.44888805839975Q1118.8608713034323 380.86902630290035 1117.1826306911266 396.92805285169015ZM1248.0275280850497 461.0773534979369L1248.0275280850497 461.0773534979369Q1235.730075322463 461.0773534979369 1225.8342427464518 457.9523537370913Q1215.9384101704409 454.8273539762457 1209.4858643679545 449.85050250526945L1209.4858643679545 449.85050250526945L1217.3851693189808 434.22550370104153Q1222.8249837174894 438.79726261042674 1231.0425756811946 441.80652163938913Q1239.2601676448999 444.84471585132235 1248.6351669274363 444.84471585132235L1248.6351669274363 444.84471585132235Q1260.3249808476367 444.84471585132235 1266.256693356649 440.99633651620695Q1272.1884058656615 437.1190219981208 1272.1884058656615 431.10050394019595L1272.1884058656615 431.10050394019595Q1272.1884058656615 426.70235612863553 1269.9893319598814 423.3748100869944Q1267.8191932370719 420.04726404535324 1261.9742862769717 416.8065235526245Q1256.1583144998422 413.5947182428665 1245.1050746049996 409.83314445666355L1245.1050746049996 409.83314445666355Q1229.885168362363 404.6248115219209 1222.3041504240155 397.4488861451644Q1214.694197302697 390.2440255854371 1214.694197302697 377.5414802612592L1214.694197302697 377.5414802612592Q1214.694197302697 365.04148121787694 1225.6316964656562 356.38986150961Q1236.569195628616 347.76717698431383 1255.926833036076 347.76717698431383L1255.926833036076 347.76717698431383Q1266.3434989055613 347.76717698431383 1274.4742853203538 349.9373157071233Q1282.6050717351468 352.1363896129035 1289.0576175376332 355.4639356545446L1289.0576175376332 355.4639356545446L1283.8492846028907 370.886388177977Q1278.2358591065572 367.55884213633584 1271.0309985468298 365.47550896243877Q1263.8550731700734 363.39217578854175 1255.1166479128938 363.39217578854175L1255.1166479128938 363.39217578854175Q1244.2659542988467 363.39217578854175 1238.6525288025132 367.7613884171314Q1233.0101681232086 372.13060104572105 1233.0101681232086 377.3389339804637L1233.0101681232086 377.3389339804637Q1233.0101681232086 382.34472063441075 1237.4083159347688 385.87481295684745Q1241.7775285633584 389.4338404622549 1254.4800738875365 393.600506810049L1254.4800738875365 393.600506810049Q1275.1108593457116 400.4581451741268 1283.241645760504 408.791477869715Q1291.343496992326 417.1248105653032 1291.343496992326 429.62480960868555L1291.343496992326 429.62480960868555Q1291.343496992326 444.2081418259649 1279.5958127061845 452.65721525343633Q1267.8191932370719 461.0773534979369 1248.0275280850497 461.0773534979369ZM1354.2775199537996 461.0773534979369L1354.2775199537996 461.0773534979369Q1338.6525211495714 461.0773534979369 1329.5958088797133 450.77642836033476Q1320.5101614268847 440.4755032227327 1320.5101614268847 421.2914769130973L1320.5101614268847 421.2914769130973L1320.5101614268847 370.4523604334151L1301.7601628618113 370.4523604334151L1301.7601628618113 354.21972278680056L1320.9441891714469 354.21972278680056L1324.9083092384453 320.0472716982947L1339.260159991958 320.0472716982947L1339.260159991958 354.21972278680056L1369.26594473267 354.21972278680056L1369.26594473267 370.4523604334151L1339.260159991958 370.4523604334151L1339.260159991958 422.76717124460777Q1339.260159991958 434.83314254342815 1344.3816873777882 439.6363829165797Q1349.4742795806478 444.41068810676046 1356.563399408492 444.41068810676046L1356.563399408492 444.41068810676046Q1361.7717323432344 444.41068810676046 1366.4592319845028 442.76138267742533Q1371.1467316257713 441.0831420651193 1375.1108516927698 438.79726261042674L1375.1108516927698 438.79726261042674L1380.3191846275126 453.7856873892972Q1376.1525182797186 456.30304830775617 1369.0633984518745 458.70466849433194Q1361.9742786240304 461.0773534979369 1354.2775199537996 461.0773534979369Z " fill="#616161" transform="matrix(0.6339113475393169,0,0,0.633911347539317,0,55.261185989261236)"/></g></svg>